<svg width="280" height="40" viewBox="0 0 280 40" fill="none" xmlns="http://www.w3.org/2000/svg">
<path d="M61.4269 28.3335L54.5149 20.5468L61.2776 13.4002H64.4136L56.9469 21.1655L56.9682 19.8215L64.6269 28.3335H61.4269ZM52.4029 28.3335V13.4002H54.8562V28.3335H52.4029ZM66.3612 28.3335V13.4002H68.8146V28.3335H66.3612ZM75.8546 28.3335V13.4002H78.3079V28.3335H75.8546ZM68.0466 21.7202V19.4802H76.3879V21.7202H68.0466ZM81.5487 28.3335V13.4002H84.0021V28.3335H81.5487ZM94.0202 28.5468C92.9394 28.5468 91.9367 28.3548 91.0122 27.9708C90.102 27.5726 89.3056 27.0251 88.6229 26.3282C87.9402 25.6171 87.414 24.7993 87.0442 23.8748C86.6745 22.9362 86.4896 21.9335 86.4896 20.8668C86.4896 19.8002 86.6745 18.8046 87.0442 17.8802C87.414 16.9415 87.9402 16.1237 88.6229 15.4268C89.3056 14.7299 90.102 14.1824 91.0122 13.7842C91.9367 13.3859 92.9394 13.1868 94.0202 13.1868C95.2291 13.1868 96.2745 13.3859 97.1562 13.7842C98.038 14.1824 98.8202 14.7228 99.5029 15.4055L97.8389 17.0695C97.398 16.5859 96.8576 16.2091 96.2176 15.9388C95.5918 15.6686 94.8594 15.5335 94.0202 15.5335C93.2807 15.5335 92.6051 15.6615 91.9936 15.9175C91.382 16.1735 90.8487 16.5433 90.3936 17.0268C89.9527 17.4962 89.6114 18.0579 89.3696 18.7122C89.1278 19.3664 89.0069 20.0846 89.0069 20.8668C89.0069 21.6491 89.1278 22.3673 89.3696 23.0215C89.6114 23.6757 89.9527 24.2446 90.3936 24.7282C90.8487 25.1975 91.382 25.5602 91.9936 25.8162C92.6051 26.0722 93.2807 26.2002 94.0202 26.2002C94.9305 26.2002 95.6985 26.0651 96.3242 25.7948C96.9642 25.5104 97.5047 25.1264 97.9456 24.6428L99.6096 26.3068C98.9269 27.0037 98.1234 27.5513 97.1989 27.9495C96.2745 28.3477 95.2149 28.5468 94.0202 28.5468ZM101.799 28.3335V13.4002H104.252V28.3335H101.799ZM111.292 28.3335V13.4002H113.745V28.3335H111.292ZM103.484 21.7202V19.4802H111.825V21.7202H103.484ZM116.986 28.3335V13.4002H119.44V28.3335H116.986ZM129.564 28.5468C128.498 28.5468 127.502 28.3477 126.578 27.9495C125.653 27.5513 124.843 27.0037 124.146 26.3068C123.449 25.5957 122.901 24.7779 122.503 23.8535C122.119 22.9148 121.927 21.9122 121.927 20.8455C121.927 19.7788 122.119 18.7833 122.503 17.8588C122.901 16.9344 123.442 16.1237 124.124 15.4268C124.821 14.7157 125.625 14.1682 126.535 13.7842C127.46 13.3859 128.455 13.1868 129.522 13.1868C130.588 13.1868 131.577 13.3859 132.487 13.7842C133.412 14.1682 134.222 14.7157 134.919 15.4268C135.616 16.1237 136.156 16.9415 136.54 17.8802C136.939 18.8046 137.138 19.8002 137.138 20.8668C137.138 21.9335 136.939 22.9362 136.54 23.8748C136.156 24.7993 135.616 25.6099 134.919 26.3068C134.236 27.0037 133.433 27.5513 132.508 27.9495C131.598 28.3477 130.617 28.5468 129.564 28.5468ZM129.522 26.2002C130.532 26.2002 131.413 25.9726 132.167 25.5175C132.935 25.0624 133.532 24.4366 133.959 23.6402C134.4 22.8295 134.62 21.8979 134.62 20.8455C134.62 20.0633 134.492 19.3522 134.236 18.7122C133.995 18.0579 133.646 17.4962 133.191 17.0268C132.736 16.5433 132.196 16.1735 131.57 15.9175C130.958 15.6615 130.276 15.5335 129.522 15.5335C128.526 15.5335 127.644 15.7611 126.876 16.2162C126.123 16.6571 125.525 17.2757 125.084 18.0722C124.658 18.8686 124.444 19.7931 124.444 20.8455C124.444 21.6277 124.565 22.3531 124.807 23.0215C125.063 23.6757 125.412 24.2375 125.852 24.7068C126.308 25.1762 126.848 25.5459 127.474 25.8162C128.1 26.0722 128.782 26.2002 129.522 26.2002ZM136.391 29.3575L129.671 22.6375L131.25 21.0588L137.97 27.7788L136.391 29.3575Z" fill="white"/>
<g clip-path="url(#clip0_72_662)">
<path d="M19.5105 2.8637V2.55225C19.5105 2.55225 19.5023 2.66579 19.5105 2.8637Z" fill="#4A8AF8"/>
<path d="M19.501 2.55225V2.8637C19.5091 2.66579 19.501 2.55225 19.501 2.55225Z" fill="#4A8AF8"/>
<path d="M19.1811 3.53955C18.1339 8.84873 14.6697 17.2482 2.79102 20.3197C14.1344 23.2624 17.7989 31.7614 19.0243 37.1005C20.073 31.7886 23.3894 23.3856 35.2862 20.3197C23.9244 17.3686 20.4072 8.87448 19.1811 3.53955Z" fill="#4A8AF8"/>
<path d="M33.052 16.6734C33.4998 14.4044 34.9169 10.8137 40.0003 9.50311C35.1452 8.24194 33.6427 4.61293 33.1186 2.3335C32.6711 4.6018 31.1909 8.19183 26.1152 9.50311C30.9623 10.7608 32.5285 14.3926 33.052 16.6734Z" fill="#4A8AF8"/>
<path d="M8.51569 27.1763C8.27208 28.4117 7.46563 30.3668 4.7002 31.0823C7.34086 31.7672 8.19437 33.7459 8.47945 34.9883C8.72375 33.7515 9.49536 31.795 12.2653 31.0823C9.62013 30.3953 8.80112 28.418 8.51569 27.1763Z" fill="#4A8AF8"/>
<path d="M33.5272 27.8229L33.0588 25.7856L32.6542 27.8347C32.4015 29.1181 31.5905 30.7781 29.1617 31.4059L27.5586 31.8201L29.161 32.2356C31.4786 32.8376 32.322 34.5171 32.6207 35.8207L33.0888 37.8594L33.4937 35.8082C33.8639 33.9346 35.0286 32.7325 36.9565 32.2363L38.5625 31.8229L36.9576 31.4066C35.1185 30.9292 33.9642 29.7223 33.5272 27.8229ZM33.0354 34.3292C32.6026 33.4299 31.8509 32.4569 30.5485 31.8256C31.9185 31.1902 32.6793 30.2116 33.1013 29.3109C33.5471 30.2603 34.3005 31.2041 35.5677 31.8152C34.402 32.3567 33.5471 33.2058 33.0354 34.3292Z" fill="#4A8AF8"/>
<path d="M6.13477 14.6099L6.60282 16.6478L7.00744 14.5974C7.49187 12.1425 9.018 10.5695 11.5437 9.91876L13.1496 9.50463L11.5444 9.08842C8.54298 8.30888 7.44413 6.1074 7.05135 4.39799L6.58261 2.35938L6.17833 4.40983C5.8469 6.09069 4.78464 8.26573 1.60378 9.08772L0.000976562 9.50254L1.60343 9.91806C4.63896 10.7053 5.74304 12.9033 6.13477 14.6099ZM6.62756 5.97098C7.19703 7.31289 8.23002 8.68055 10.0921 9.49837C8.40846 10.2111 7.20714 11.4089 6.54706 13.032C5.99955 11.7778 4.97423 10.3531 3.05358 9.50811C5.07042 8.65202 6.10096 7.22519 6.62756 5.97098Z" fill="#4A8AF8"/>
</g>
<path d="M164.735 25.36V24.36H166.485C166.725 24.36 166.935 24.3133 167.115 24.22C167.301 24.12 167.448 23.9833 167.555 23.81C167.661 23.63 167.715 23.42 167.715 23.18C167.715 22.94 167.661 22.7333 167.555 22.56C167.448 22.38 167.301 22.2433 167.115 22.15C166.935 22.05 166.725 22 166.485 22H164.735V21H166.545C166.985 21 167.378 21.09 167.725 21.27C168.078 21.45 168.355 21.7033 168.555 22.03C168.761 22.3567 168.865 22.74 168.865 23.18C168.865 23.62 168.761 24.0033 168.555 24.33C168.355 24.6567 168.078 24.91 167.725 25.09C167.378 25.27 166.985 25.36 166.545 25.36H164.735ZM163.945 28V21H165.095V28H163.945ZM170.692 25.03V24.08H172.462C172.815 24.08 173.088 23.99 173.282 23.81C173.482 23.6233 173.582 23.3667 173.582 23.04C173.582 22.7467 173.485 22.5 173.292 22.3C173.098 22.1 172.825 22 172.472 22H170.692V21H172.522C172.962 21 173.348 21.09 173.682 21.27C174.015 21.4433 174.272 21.6833 174.452 21.99C174.638 22.29 174.732 22.6333 174.732 23.02C174.732 23.4267 174.638 23.78 174.452 24.08C174.272 24.38 174.015 24.6133 173.682 24.78C173.348 24.9467 172.962 25.03 172.522 25.03H170.692ZM169.902 28V21H171.052V28H169.902ZM173.742 28L171.292 24.96L172.362 24.57L175.192 28H173.742ZM179.176 28.1C178.676 28.1 178.21 28.0067 177.776 27.82C177.343 27.6333 176.963 27.3767 176.636 27.05C176.31 26.7167 176.053 26.3333 175.866 25.9C175.686 25.46 175.596 24.99 175.596 24.49C175.596 23.99 175.686 23.5233 175.866 23.09C176.053 22.6567 176.306 22.2767 176.626 21.95C176.953 21.6167 177.33 21.36 177.756 21.18C178.19 20.9933 178.656 20.9 179.156 20.9C179.656 20.9 180.12 20.9933 180.546 21.18C180.98 21.36 181.36 21.6167 181.686 21.95C182.013 22.2767 182.266 22.66 182.446 23.1C182.633 23.5333 182.726 24 182.726 24.5C182.726 25 182.633 25.47 182.446 25.91C182.266 26.3433 182.013 26.7233 181.686 27.05C181.366 27.3767 180.99 27.6333 180.556 27.82C180.13 28.0067 179.67 28.1 179.176 28.1ZM179.156 27C179.63 27 180.043 26.8933 180.396 26.68C180.756 26.4667 181.036 26.1733 181.236 25.8C181.443 25.42 181.546 24.9833 181.546 24.49C181.546 24.1233 181.486 23.79 181.366 23.49C181.253 23.1833 181.09 22.92 180.876 22.7C180.663 22.4733 180.41 22.3 180.116 22.18C179.83 22.06 179.51 22 179.156 22C178.69 22 178.276 22.1067 177.916 22.32C177.563 22.5267 177.283 22.8167 177.076 23.19C176.876 23.5633 176.776 23.9967 176.776 24.49C176.776 24.8567 176.833 25.1967 176.946 25.51C177.066 25.8167 177.23 26.08 177.436 26.3C177.65 26.52 177.903 26.6933 178.196 26.82C178.49 26.94 178.81 27 179.156 27ZM186.596 28.1C186.069 28.1 185.596 27.98 185.176 27.74C184.756 27.5 184.422 27.1733 184.176 26.76C183.936 26.34 183.816 25.8667 183.816 25.34V21H184.966V25.33C184.966 25.67 185.036 25.9667 185.176 26.22C185.322 26.4667 185.519 26.66 185.766 26.8C186.012 26.9333 186.289 27 186.596 27C186.909 27 187.186 26.9333 187.426 26.8C187.666 26.66 187.856 26.4667 187.996 26.22C188.136 25.9667 188.206 25.6733 188.206 25.34V21H189.356V25.35C189.356 25.8767 189.236 26.3467 188.996 26.76C188.756 27.1733 188.429 27.5 188.016 27.74C187.602 27.98 187.129 28.1 186.596 28.1ZM191.59 28V26.95H193.43C193.91 26.95 194.33 26.8467 194.69 26.64C195.057 26.4333 195.34 26.1467 195.54 25.78C195.747 25.4067 195.85 24.9767 195.85 24.49C195.85 24.01 195.747 23.5867 195.54 23.22C195.333 22.8533 195.047 22.5667 194.68 22.36C194.32 22.1533 193.903 22.05 193.43 22.05H191.59V21H193.46C193.967 21 194.437 21.09 194.87 21.27C195.303 21.4433 195.68 21.69 196 22.01C196.327 22.3233 196.58 22.6933 196.76 23.12C196.94 23.54 197.03 24 197.03 24.5C197.03 24.9933 196.94 25.4533 196.76 25.88C196.58 26.3067 196.33 26.68 196.01 27C195.69 27.3133 195.313 27.56 194.88 27.74C194.447 27.9133 193.98 28 193.48 28H191.59ZM190.8 28V21H191.95V28H190.8ZM198.202 28V21H199.352V28H198.202ZM198.992 28V26.95H202.652V28H198.992ZM204.904 25.2L202.174 21H203.504L205.634 24.35H205.014L207.144 21H208.454L205.704 25.2H204.904ZM204.744 28V24.48H205.894V28H204.744ZM211.152 28V21H211.952L214.862 25.79H214.342L217.252 21H218.052V28H216.902V23.02L217.162 23.09L215.002 26.64H214.202L212.042 23.09L212.302 23.02V28H211.152ZM219.05 28L221.93 21H222.73L225.59 28H224.35L222.11 22.33H222.53L220.27 28H219.05ZM220.47 26.65V25.65H224.18V26.65H220.47ZM227.303 28V26.95H229.143C229.623 26.95 230.043 26.8467 230.403 26.64C230.77 26.4333 231.053 26.1467 231.253 25.78C231.46 25.4067 231.563 24.9767 231.563 24.49C231.563 24.01 231.46 23.5867 231.253 23.22C231.046 22.8533 230.76 22.5667 230.393 22.36C230.033 22.1533 229.616 22.05 229.143 22.05H227.303V21H229.173C229.68 21 230.15 21.09 230.583 21.27C231.016 21.4433 231.393 21.69 231.713 22.01C232.04 22.3233 232.293 22.6933 232.473 23.12C232.653 23.54 232.743 24 232.743 24.5C232.743 24.9933 232.653 25.4533 232.473 25.88C232.293 26.3067 232.043 26.68 231.723 27C231.403 27.3133 231.026 27.56 230.593 27.74C230.16 27.9133 229.693 28 229.193 28H227.303ZM226.513 28V21H227.663V28H226.513ZM233.915 28V21H235.065V28H233.915ZM234.705 28V26.95H238.625V28H234.705ZM234.705 24.93V23.92H238.285V24.93H234.705ZM234.705 22.05V21H238.575V22.05H234.705ZM241.816 28V21H242.966V28H241.816ZM244.482 28V21H245.282L245.632 22.32V28H244.482ZM249.332 28L245.142 22.53L245.282 21L249.472 26.47L249.332 28ZM249.332 28L248.982 26.77V21H250.132V28H249.332ZM253.652 28V21H254.802V28H253.652ZM256.318 28V21H257.118L257.468 22.32V28H256.318ZM261.168 28L256.978 22.53L257.118 21L261.308 26.47L261.168 28ZM261.168 28L260.818 26.77V21H261.968V28H261.168ZM264.276 28V26.95H266.116C266.596 26.95 267.016 26.8467 267.376 26.64C267.742 26.4333 268.026 26.1467 268.226 25.78C268.432 25.4067 268.536 24.9767 268.536 24.49C268.536 24.01 268.432 23.5867 268.226 23.22C268.019 22.8533 267.732 22.5667 267.366 22.36C267.006 22.1533 266.589 22.05 266.116 22.05H264.276V21H266.146C266.652 21 267.122 21.09 267.556 21.27C267.989 21.4433 268.366 21.69 268.686 22.01C269.012 22.3233 269.266 22.6933 269.446 23.12C269.626 23.54 269.716 24 269.716 24.5C269.716 24.9933 269.626 25.4533 269.446 25.88C269.266 26.3067 269.016 26.68 268.696 27C268.376 27.3133 267.999 27.56 267.566 27.74C267.132 27.9133 266.666 28 266.166 28H264.276ZM263.486 28V21H264.636V28H263.486ZM270.888 28V21H272.038V28H270.888ZM273.034 28L275.914 21H276.714L279.574 28H278.334L276.094 22.33H276.514L274.254 28H273.034ZM274.454 26.65V25.65H278.164V26.65H274.454Z" fill="#DADADA"/>
<path d="M151.5 20L151.5 30" stroke="#DADADA" stroke-opacity="0.5" stroke-linecap="round"/>
<defs>
<clipPath id="clip0_72_662">
<rect width="40" height="40" fill="white"/>
</clipPath>
</defs>
</svg>
