<svg width="113" height="32" viewBox="0 0 113 32" fill="none" xmlns="http://www.w3.org/2000/svg">
<path d="M50.0083 22.2671L44.4787 16.0378L49.8888 10.3205H52.3976L46.4243 16.5327L46.4414 15.4575L52.5683 22.2671H50.0083ZM42.7891 22.2671V10.3205H44.7518V22.2671H42.7891ZM53.9557 22.2671V10.3205H55.9184V22.2671H53.9557ZM61.5504 22.2671V10.3205H63.513V22.2671H61.5504ZM55.304 16.9764V15.1845H61.977V16.9764H55.304ZM66.1057 22.2671V10.3205H68.0683V22.2671H66.1057ZM76.0828 22.4378C75.2181 22.4378 74.416 22.2842 73.6764 21.977C72.9483 21.6584 72.3111 21.2203 71.765 20.6628C71.2188 20.0939 70.7979 19.4397 70.502 18.7002C70.2062 17.9492 70.0583 17.1471 70.0583 16.2938C70.0583 15.4405 70.2062 14.644 70.502 13.9045C70.7979 13.1535 71.2188 12.4993 71.765 11.9418C72.3111 11.3843 72.9483 10.9463 73.6764 10.6277C74.416 10.3091 75.2181 10.1498 76.0828 10.1498C77.0499 10.1498 77.8862 10.3091 78.5916 10.6277C79.297 10.9463 79.9228 11.3786 80.4689 11.9247L79.1377 13.2559C78.785 12.8691 78.3527 12.5676 77.8407 12.3514C77.3401 12.1352 76.7541 12.0271 76.0828 12.0271C75.4912 12.0271 74.9507 12.1295 74.4615 12.3343C73.9723 12.5391 73.5456 12.835 73.1815 13.2218C72.8288 13.5973 72.5557 14.0467 72.3623 14.5701C72.1689 15.0934 72.0722 15.668 72.0722 16.2938C72.0722 16.9196 72.1689 17.4941 72.3623 18.0175C72.5557 18.5409 72.8288 18.996 73.1815 19.3828C73.5456 19.7583 73.9723 20.0484 74.4615 20.2532C74.9507 20.458 75.4912 20.5604 76.0828 20.5604C76.811 20.5604 77.4254 20.4523 77.926 20.2362C78.438 20.0086 78.8704 19.7014 79.2231 19.3146L80.5543 20.6458C80.0081 21.2033 79.3653 21.6413 78.6257 21.9599C77.8862 22.2785 77.0386 22.4378 76.0828 22.4378ZM82.3056 22.2671V10.3205H84.2683V22.2671H82.3056ZM89.9002 22.2671V10.3205H91.8629V22.2671H89.9002ZM83.6539 16.9764V15.1845H90.3269V16.9764H83.6539ZM94.4555 22.2671V10.3205H96.4182V22.2671H94.4555ZM104.518 22.4378C103.665 22.4378 102.868 22.2785 102.129 21.9599C101.389 21.6413 100.741 21.2033 100.183 20.6458C99.6256 20.0769 99.1876 19.4227 98.869 18.6831C98.5618 17.9322 98.4082 17.13 98.4082 16.2767C98.4082 15.4234 98.5618 14.6269 98.869 13.8874C99.1876 13.1478 99.6199 12.4993 100.166 11.9418C100.724 11.3729 101.366 10.9349 102.095 10.6277C102.834 10.3091 103.631 10.1498 104.484 10.1498C105.337 10.1498 106.128 10.3091 106.856 10.6277C107.596 10.9349 108.244 11.3729 108.802 11.9418C109.359 12.4993 109.792 13.1535 110.099 13.9045C110.417 14.644 110.577 15.4405 110.577 16.2938C110.577 17.1471 110.417 17.9492 110.099 18.7002C109.792 19.4397 109.359 20.0883 108.802 20.6458C108.256 21.2033 107.613 21.6413 106.873 21.9599C106.145 22.2785 105.36 22.4378 104.518 22.4378ZM104.484 20.5604C105.292 20.5604 105.997 20.3784 106.6 20.0143C107.215 19.6502 107.692 19.1496 108.034 18.5124C108.386 17.8639 108.563 17.1187 108.563 16.2767C108.563 15.6509 108.46 15.0821 108.256 14.5701C108.062 14.0467 107.783 13.5973 107.419 13.2218C107.055 12.835 106.623 12.5391 106.122 12.3343C105.633 12.1295 105.087 12.0271 104.484 12.0271C103.687 12.0271 102.982 12.2092 102.368 12.5733C101.765 12.926 101.287 13.4209 100.934 14.0581C100.593 14.6952 100.422 15.4348 100.422 16.2767C100.422 16.9025 100.519 17.4828 100.712 18.0175C100.917 18.5409 101.196 18.9903 101.548 19.3658C101.913 19.7412 102.345 20.0371 102.846 20.2532C103.346 20.458 103.892 20.5604 104.484 20.5604ZM109.979 23.0863L104.603 17.7103L105.866 16.4474L111.242 21.8234L109.979 23.0863Z" fill="white"/>
<g clip-path="url(#clip0_2_2746)">
<path d="M16.1744 2.29116V2.04199C16.1744 2.04199 16.1679 2.13283 16.1744 2.29116Z" fill="#4A8AF8"/>
<path d="M16.1672 2.0415V2.29067C16.1737 2.13234 16.1672 2.0415 16.1672 2.0415Z" fill="#4A8AF8"/>
<path d="M15.9104 2.83154C15.0726 7.07889 12.3013 13.7985 2.79846 16.2557C11.8731 18.6099 14.8047 25.4091 15.785 29.6803C16.6239 25.4308 19.277 18.7084 28.7944 16.2557C19.705 13.8948 16.8913 7.09949 15.9104 2.83154Z" fill="#4A8AF8"/>
<path d="M27.0077 13.3382C27.366 11.523 28.4996 8.65038 32.5663 7.60191C28.6822 6.59297 27.4803 3.68976 27.061 1.86621C26.703 3.68085 25.5189 6.55288 21.4584 7.60191C25.336 8.60806 26.589 11.5135 27.0077 13.3382Z" fill="#4A8AF8"/>
<path d="M7.37806 21.7407C7.18317 22.7291 6.53801 24.2931 4.32568 24.8655C6.4382 25.4134 7.121 26.9964 7.34906 27.9904C7.5445 27.0009 8.16178 25.4357 10.3777 24.8655C8.26159 24.316 7.6064 22.7341 7.37806 21.7407Z" fill="#4A8AF8"/>
<path d="M27.3871 22.2582L27.0124 20.6284L26.6887 22.2677C26.4866 23.2944 25.8378 24.6224 23.8948 25.1247L22.6123 25.456L23.8943 25.7884C25.7483 26.27 26.423 27.6136 26.662 28.6565L27.0364 30.2874L27.3604 28.6465C27.6565 27.1475 28.5882 26.1859 30.1306 25.7889L31.4153 25.4582L30.1314 25.1252C28.6602 24.7432 27.7368 23.7777 27.3871 22.2582ZM26.9937 27.4633C26.6475 26.7439 26.0461 25.9654 25.0042 25.4604C26.1002 24.952 26.7088 24.1692 27.0464 23.4487C27.403 24.2081 28.0058 24.9632 29.0196 25.4521C28.0869 25.8853 27.403 26.5646 26.9937 27.4633Z" fill="#4A8AF8"/>
<path d="M5.4734 11.6876L5.84783 13.3179L6.17153 11.6776C6.55907 9.71372 7.77996 8.45533 9.80047 7.93471L11.0852 7.60341L9.80103 7.27044C7.39995 6.64681 6.52087 4.88563 6.20666 3.5181L5.83166 1.88721L5.50825 3.52757C5.2431 4.87226 4.3933 6.61229 1.84864 7.26988L0.566406 7.60174L1.84836 7.93416C4.27676 8.56391 5.16002 10.3223 5.4734 11.6876ZM5.86763 4.77649C6.3232 5.85002 7.14958 6.94415 8.63924 7.5984C7.29233 8.16857 6.33128 9.12684 5.80323 10.4253C5.36522 9.42195 4.54497 8.28216 3.00847 7.6062C4.62192 6.92132 5.44635 5.77986 5.86763 4.77649Z" fill="#4A8AF8"/>
</g>
<defs>
<clipPath id="clip0_2_2746">
<rect width="31.9997" height="32" fill="white" transform="translate(0.566406)"/>
</clipPath>
</defs>
</svg>
