<svg width="139" height="40" viewBox="0 0 139 40" fill="none" xmlns="http://www.w3.org/2000/svg">
<path d="M61.4264 28.3335L54.5144 20.5468L61.2771 13.4002H64.4131L56.9464 21.1655L56.9678 19.8215L64.6264 28.3335H61.4264ZM52.4024 28.3335V13.4002H54.8558V28.3335H52.4024ZM66.3608 28.3335V13.4002H68.8141V28.3335H66.3608ZM75.8541 28.3335V13.4002H78.3074V28.3335H75.8541ZM68.0461 21.7202V19.4802H76.3874V21.7202H68.0461ZM81.5483 28.3335V13.4002H84.0016V28.3335H81.5483ZM94.0198 28.5468C92.9389 28.5468 91.9362 28.3548 91.0118 27.9708C90.1015 27.5726 89.3051 27.0251 88.6224 26.3282C87.9398 25.6171 87.4135 24.7993 87.0438 23.8748C86.674 22.9362 86.4891 21.9335 86.4891 20.8668C86.4891 19.8002 86.674 18.8046 87.0438 17.8802C87.4135 16.9415 87.9398 16.1237 88.6224 15.4268C89.3051 14.7299 90.1015 14.1824 91.0118 13.7842C91.9362 13.3859 92.9389 13.1868 94.0198 13.1868C95.2286 13.1868 96.274 13.3859 97.1558 13.7842C98.0375 14.1824 98.8198 14.7228 99.5024 15.4055L97.8384 17.0695C97.3975 16.5859 96.8571 16.2091 96.2171 15.9388C95.5913 15.6686 94.8589 15.5335 94.0198 15.5335C93.2802 15.5335 92.6046 15.6615 91.9931 15.9175C91.3815 16.1735 90.8482 16.5433 90.3931 17.0268C89.9522 17.4962 89.6109 18.0579 89.3691 18.7122C89.1273 19.3664 89.0064 20.0846 89.0064 20.8668C89.0064 21.6491 89.1273 22.3673 89.3691 23.0215C89.6109 23.6757 89.9522 24.2446 90.3931 24.7282C90.8482 25.1975 91.3815 25.5602 91.9931 25.8162C92.6046 26.0722 93.2802 26.2002 94.0198 26.2002C94.93 26.2002 95.698 26.0651 96.3238 25.7948C96.9638 25.5104 97.5042 25.1264 97.9451 24.6428L99.6091 26.3068C98.9264 27.0037 98.1229 27.5513 97.1984 27.9495C96.274 28.3477 95.2144 28.5468 94.0198 28.5468ZM101.798 28.3335V13.4002H104.252V28.3335H101.798ZM111.292 28.3335V13.4002H113.745V28.3335H111.292ZM103.484 21.7202V19.4802H111.825V21.7202H103.484ZM116.986 28.3335V13.4002H119.439V28.3335H116.986ZM129.564 28.5468C128.497 28.5468 127.502 28.3477 126.577 27.9495C125.653 27.5513 124.842 27.0037 124.145 26.3068C123.448 25.5957 122.901 24.7779 122.503 23.8535C122.119 22.9148 121.927 21.9122 121.927 20.8455C121.927 19.7788 122.119 18.7833 122.503 17.8588C122.901 16.9344 123.441 16.1237 124.124 15.4268C124.821 14.7157 125.624 14.1682 126.535 13.7842C127.459 13.3859 128.455 13.1868 129.521 13.1868C130.588 13.1868 131.576 13.3859 132.487 13.7842C133.411 14.1682 134.222 14.7157 134.919 15.4268C135.615 16.1237 136.156 16.9415 136.54 17.8802C136.938 18.8046 137.137 19.8002 137.137 20.8668C137.137 21.9335 136.938 22.9362 136.54 23.8748C136.156 24.7993 135.615 25.6099 134.919 26.3068C134.236 27.0037 133.432 27.5513 132.508 27.9495C131.598 28.3477 130.616 28.5468 129.564 28.5468ZM129.521 26.2002C130.531 26.2002 131.413 25.9726 132.167 25.5175C132.935 25.0624 133.532 24.4366 133.959 23.6402C134.399 22.8295 134.62 21.8979 134.62 20.8455C134.62 20.0633 134.492 19.3522 134.236 18.7122C133.994 18.0579 133.646 17.4962 133.191 17.0268C132.735 16.5433 132.195 16.1735 131.569 15.9175C130.958 15.6615 130.275 15.5335 129.521 15.5335C128.526 15.5335 127.644 15.7611 126.876 16.2162C126.122 16.6571 125.525 17.2757 125.084 18.0722C124.657 18.8686 124.444 19.7931 124.444 20.8455C124.444 21.6277 124.565 22.3531 124.807 23.0215C125.063 23.6757 125.411 24.2375 125.852 24.7068C126.307 25.1762 126.847 25.5459 127.473 25.8162C128.099 26.0722 128.782 26.2002 129.521 26.2002ZM136.391 29.3575L129.671 22.6375L131.249 21.0588L137.969 27.7788L136.391 29.3575Z" fill="#4A8AF8"/>
<g clip-path="url(#clip0_72_885)">
<path d="M19.5109 2.8637V2.55225C19.5109 2.55225 19.5028 2.66579 19.5109 2.8637Z" fill="#4A8AF8"/>
<path d="M19.5005 2.55225V2.8637C19.5086 2.66579 19.5005 2.55225 19.5005 2.55225Z" fill="#4A8AF8"/>
<path d="M19.1821 3.53955C18.1348 8.84873 14.6706 17.2482 2.79199 20.3197C14.1353 23.2624 17.7999 31.7614 19.0253 37.1005C20.074 31.7886 23.3904 23.3856 35.2872 20.3197C23.9254 17.3686 20.4082 8.87448 19.1821 3.53955Z" fill="#4A8AF8"/>
<path d="M33.053 16.6734C33.5008 14.4044 34.9179 10.8137 40.0012 9.50311C35.1461 8.24194 33.6437 4.61293 33.1195 2.3335C32.6721 4.6018 31.1919 8.19183 26.1162 9.50311C30.9633 10.7608 32.5295 14.3926 33.053 16.6734Z" fill="#4A8AF8"/>
<path d="M8.51618 27.1763C8.27257 28.4117 7.46612 30.3668 4.70068 31.0823C7.34135 31.7672 8.19485 33.7459 8.47994 34.9883C8.72424 33.7515 9.49585 31.795 12.2658 31.0823C9.62061 30.3953 8.80161 28.418 8.51618 27.1763Z" fill="#4A8AF8"/>
<path d="M33.5272 27.8229L33.0588 25.7856L32.6542 27.8347C32.4015 29.1181 31.5905 30.7781 29.1617 31.4059L27.5586 31.8201L29.161 32.2356C31.4786 32.8376 32.322 34.5171 32.6207 35.8207L33.0888 37.8594L33.4937 35.8082C33.8639 33.9346 35.0286 32.7325 36.9565 32.2363L38.5625 31.8229L36.9576 31.4066C35.1185 30.9292 33.9642 29.7223 33.5272 27.8229ZM33.0354 34.3292C32.6026 33.4299 31.8509 32.4569 30.5485 31.8256C31.9185 31.1902 32.6793 30.2116 33.1013 29.3109C33.5471 30.2603 34.3005 31.2041 35.5677 31.8152C34.402 32.3567 33.5471 33.2058 33.0354 34.3292Z" fill="#4A8AF8"/>
<path d="M6.13526 14.6099L6.60331 16.6478L7.00793 14.5974C7.49236 12.1425 9.01849 10.5695 11.5441 9.91876L13.1501 9.50463L11.5448 9.08842C8.54347 8.30888 7.44461 6.1074 7.05184 4.39799L6.5831 2.35938L6.17882 4.40983C5.84739 6.09069 4.78513 8.26573 1.60427 9.08772L0.00146484 9.50254L1.60392 9.91806C4.63945 10.7053 5.74353 12.9033 6.13526 14.6099ZM6.62805 5.97098C7.19752 7.31289 8.23051 8.68055 10.0926 9.49837C8.40894 10.2111 7.20763 11.4089 6.54755 13.032C6.00004 11.7778 4.97472 10.3531 3.05407 9.50811C5.07091 8.65202 6.10145 7.22519 6.62805 5.97098Z" fill="#4A8AF8"/>
</g>
<defs>
<clipPath id="clip0_72_885">
<rect width="40" height="40" fill="white"/>
</clipPath>
</defs>
</svg>
