<svg width="40" height="40" viewBox="0 0 40 40" fill="none" xmlns="http://www.w3.org/2000/svg">
<g clip-path="url(#clip0_1041_220)">
<path d="M19.5114 2.86346V2.552C19.5114 2.552 19.5033 2.66554 19.5114 2.86346Z" fill="#4A8AF8"/>
<path d="M19.5 2.552V2.86346C19.5081 2.66554 19.5 2.552 19.5 2.552Z" fill="#4A8AF8"/>
<path d="M19.1831 3.53931C18.1358 8.84848 14.6716 17.248 2.79297 20.3195C14.1363 23.2622 17.8009 31.7612 19.0263 37.1003C20.0749 31.7883 23.3914 23.3854 35.2881 20.3195C23.9263 17.3684 20.4092 8.87424 19.1831 3.53931Z" fill="#4A8AF8"/>
<path d="M33.0539 16.6732C33.5018 14.4042 34.9188 10.8135 40.0022 9.50287C35.1471 8.2417 33.6447 4.61269 33.1205 2.33325C32.673 4.60155 31.1929 8.19158 26.1172 9.50287C30.9643 10.7606 32.5305 14.3924 33.0539 16.6732Z" fill="#4A8AF8"/>
<path d="M8.51667 27.176C8.27306 28.4114 7.46661 30.3665 4.70117 31.082C7.34184 31.7669 8.19534 33.7457 8.48043 34.9881C8.72473 33.7512 9.49634 31.7948 12.2663 31.082C9.6211 30.3951 8.8021 28.4177 8.51667 27.176Z" fill="#4A8AF8"/>
<path d="M33.5272 27.8226L33.0588 25.7854L32.6542 27.8345C32.4015 29.1179 31.5905 30.7779 29.1617 31.4057L27.5586 31.8198L29.161 32.2353C31.4786 32.8374 32.322 34.5169 32.6207 35.8205L33.0888 37.8591L33.4937 35.808C33.8639 33.9343 35.0286 32.7323 36.9565 32.236L38.5625 31.8226L36.9576 31.4064C35.1185 30.9289 33.9642 29.722 33.5272 27.8226ZM33.0354 34.3289C32.6026 33.4297 31.8509 32.4567 30.5485 31.8254C31.9185 31.1899 32.6793 30.2113 33.1013 29.3107C33.5471 30.2601 34.3005 31.2039 35.5677 31.815C34.402 32.3564 33.5471 33.2056 33.0354 34.3289Z" fill="#4A8AF8"/>
<path d="M6.13575 14.6096L6.6038 16.6476L7.00842 14.5971C7.49285 12.1423 9.01898 10.5693 11.5446 9.91851L13.1506 9.50439L11.5453 9.08817C8.54396 8.30864 7.4451 6.10715 7.05233 4.39775L6.58358 2.35913L6.17931 4.40958C5.84788 6.09045 4.78561 8.26549 1.60476 9.08748L0.00195312 9.5023L1.60441 9.91782C4.63994 10.705 5.74402 12.903 6.13575 14.6096ZM6.62854 5.97074C7.19801 7.31265 8.231 8.68031 10.0931 9.49812C8.40943 10.2108 7.20812 11.4087 6.54804 13.0318C6.00052 11.7776 4.97521 10.3528 3.05456 9.50787C5.07139 8.65177 6.10194 7.22495 6.62854 5.97074Z" fill="#4A8AF8"/>
</g>
<defs>
<clipPath id="clip0_1041_220">
<rect width="40" height="40" fill="white"/>
</clipPath>
</defs>
</svg>