<svg width="48" height="48" viewBox="0 0 48 48" fill="none" xmlns="http://www.w3.org/2000/svg">
<g clip-path="url(#clip0_1041_141)">
<path d="M23.9989 27.105C22.4176 27.105 20.8719 26.6361 19.5571 25.7576C18.2424 24.8791 17.2176 23.6304 16.6125 22.1695C16.0074 20.7087 15.849 19.1011 16.1575 17.5502C16.466 15.9994 17.2275 14.5748 18.3456 13.4567C19.4637 12.3386 20.8883 11.5771 22.4392 11.2686C23.99 10.9601 25.5976 11.1185 27.0585 11.7236C28.5194 12.3287 29.768 13.3534 30.6465 14.6682C31.525 15.983 31.9939 17.5287 31.9939 19.11C31.9899 21.2292 31.1463 23.2604 29.6478 24.7589C28.1494 26.2574 26.1181 27.101 23.9989 27.105ZM23.9989 14.31C23.0496 14.31 22.1215 14.5915 21.3322 15.1189C20.5428 15.6464 19.9276 16.396 19.5643 17.2731C19.201 18.1502 19.1059 19.1153 19.2911 20.0464C19.4764 20.9775 19.9335 21.8328 20.6048 22.5041C21.2761 23.1754 22.1314 23.6326 23.0625 23.8178C23.9936 24.003 24.9587 23.9079 25.8358 23.5446C26.7129 23.1813 27.4625 22.5661 27.99 21.7767C28.5174 20.9874 28.7989 20.0593 28.7989 19.11C28.7989 17.837 28.2932 16.6161 27.393 15.7159C26.4928 14.8157 25.2719 14.31 23.9989 14.31Z" fill="#4A8AF8"/>
<path d="M40.0046 28.71C38.7378 28.71 37.4995 28.3344 36.4462 27.6306C35.3929 26.9268 34.5719 25.9265 34.0872 24.7561C33.6024 23.5858 33.4755 22.2979 33.7227 21.0555C33.9698 19.813 34.5798 18.6718 35.4756 17.776C36.3713 16.8803 37.5126 16.2702 38.7551 16.0231C39.9975 15.776 41.2853 15.9028 42.4557 16.3876C43.6261 16.8724 44.6264 17.6933 45.3302 18.7466C46.034 19.7999 46.4096 21.0382 46.4096 22.305C46.4096 24.0037 45.7348 25.6329 44.5336 26.834C43.3325 28.0352 41.7033 28.71 40.0046 28.71ZM40.0046 19.11C39.3727 19.11 38.755 19.2974 38.2296 19.6485C37.7042 19.9996 37.2946 20.4985 37.0528 21.0824C36.811 21.6662 36.7477 22.3086 36.871 22.9283C36.9943 23.5481 37.2986 24.1174 37.7454 24.5642C38.1922 25.0111 38.7615 25.3154 39.3813 25.4386C40.0011 25.5619 40.6435 25.4986 41.2273 25.2568C41.8111 25.015 42.3101 24.6055 42.6612 24.0801C43.0122 23.5547 43.1996 22.9369 43.1996 22.305C43.1957 21.4589 42.8578 20.6485 42.2595 20.0502C41.6611 19.4519 40.8508 19.114 40.0046 19.11Z" fill="#4A8AF8"/>
<path d="M7.99485 28.71C6.72806 28.71 5.48972 28.3344 4.43642 27.6306C3.38312 26.9268 2.56218 25.9265 2.0774 24.7561C1.59262 23.5858 1.46578 22.2979 1.71292 21.0555C1.96006 19.813 2.57007 18.6718 3.46583 17.776C4.36158 16.8803 5.50285 16.2702 6.74529 16.0231C7.98774 15.776 9.27557 15.9028 10.4459 16.3876C11.6163 16.8724 12.6166 17.6933 13.3204 18.7466C14.0242 19.7999 14.3998 21.0382 14.3998 22.305C14.3998 24.0037 13.725 25.6329 12.5239 26.834C11.3227 28.0352 9.69356 28.71 7.99485 28.71ZM7.99485 19.11C7.36294 19.11 6.74521 19.2974 6.2198 19.6485C5.69439 19.9996 5.28487 20.4985 5.04305 21.0824C4.80123 21.6662 4.73796 22.3086 4.86124 22.9283C4.98452 23.5481 5.28881 24.1174 5.73564 24.5642C6.18247 25.0111 6.75176 25.3154 7.37153 25.4386C7.9913 25.5619 8.63371 25.4986 9.21752 25.2568C9.80133 25.015 10.3003 24.6055 10.6514 24.0801C11.0025 23.5547 11.1898 22.9369 11.1898 22.305C11.1859 21.4589 10.848 20.6485 10.2497 20.0502C9.65137 19.4519 8.841 19.114 7.99485 19.11Z" fill="#4A8AF8"/>
<path d="M33.5986 39.6149C33.1931 39.612 32.8037 39.4557 32.5088 39.1775C32.2138 38.8992 32.0351 38.5196 32.0086 38.1149C31.8743 36.7411 31.2328 35.4666 30.2094 34.5402C29.1859 33.6138 27.854 33.1021 26.4736 33.1049H21.5236C20.1432 33.1021 18.8113 33.6138 17.7878 34.5402C16.7644 35.4666 16.1229 36.7411 15.9886 38.1149C15.9118 38.5068 15.6916 38.856 15.3711 39.0942C15.0506 39.3325 14.6528 39.4427 14.2554 39.4033C13.858 39.364 13.4895 39.1779 13.222 38.8814C12.9545 38.5849 12.8071 38.1993 12.8086 37.7999C13.0387 35.6519 14.0571 33.6655 15.6668 32.2248C17.2766 30.7841 19.3633 29.9914 21.5236 29.9999H26.4736C28.6479 29.9936 30.7463 30.7989 32.3582 32.2581C33.9701 33.7174 34.9794 35.7257 35.1886 37.8899C35.2091 38.1044 35.1863 38.3208 35.1214 38.5262C35.0565 38.7317 34.951 38.922 34.811 39.0857C34.671 39.2495 34.4995 39.3834 34.3067 39.4795C34.1138 39.5756 33.9036 39.6318 33.6886 39.6449L33.5986 39.6149Z" fill="#4A8AF8"/>
<path d="M46.3938 38.535C45.9883 38.532 45.599 38.3757 45.304 38.0975C45.009 37.8192 44.8303 37.4396 44.8038 37.035C44.7287 36.25 44.362 35.5217 43.776 34.994C43.19 34.4663 42.4274 34.1776 41.6388 34.185H38.3388C38.024 34.1864 37.711 34.2318 37.4088 34.32C37.1996 34.4371 36.9668 34.5059 36.7275 34.5213C36.4882 34.5367 36.2485 34.4983 36.0261 34.4089C35.8036 34.3195 35.6039 34.1813 35.4419 34.0047C35.2798 33.828 35.1593 33.6172 35.0893 33.3879C35.0194 33.1585 35.0017 32.9164 35.0376 32.6793C35.0735 32.4423 35.1621 32.2162 35.2968 32.0179C35.4315 31.8195 35.609 31.6539 35.8161 31.5331C36.0233 31.4123 36.2548 31.3395 36.4938 31.32C37.0928 31.1427 37.7141 31.0518 38.3388 31.05H41.6388C43.2229 31.0388 44.7538 31.6205 45.9307 32.6808C47.1076 33.7411 47.8453 35.2033 47.9988 36.78C48.0193 36.9944 47.9965 37.2108 47.9316 37.4163C47.8667 37.6217 47.7612 37.812 47.6212 37.9757C47.4812 38.1395 47.3097 38.2734 47.1169 38.3695C46.924 38.4656 46.7139 38.5218 46.4988 38.535H46.3938Z" fill="#4A8AF8"/>
<path d="M1.60449 38.535H1.49949C1.28446 38.5219 1.07426 38.4656 0.881428 38.3695C0.688598 38.2735 0.517085 38.1395 0.37711 37.9758C0.237135 37.812 0.131563 37.6217 0.0666879 37.4163C0.00181238 37.2108 -0.0210394 36.9945 -0.000505519 36.78C0.152766 35.206 0.888338 33.7459 2.06206 32.6859C3.23577 31.626 4.76302 31.0426 6.34449 31.05H9.64449C10.2692 31.0518 10.8905 31.1427 11.4895 31.32C11.7285 31.3395 11.96 31.4124 12.1672 31.5331C12.3743 31.6539 12.5518 31.8196 12.6865 32.0179C12.8212 32.2163 12.9098 32.4423 12.9457 32.6794C12.9816 32.9164 12.9639 33.1585 12.894 33.3879C12.824 33.6172 12.7036 33.828 12.5415 34.0047C12.3794 34.1814 12.1797 34.3195 11.9572 34.4089C11.7348 34.4983 11.4951 34.5367 11.2558 34.5214C11.0165 34.506 10.7837 34.4372 10.5745 34.32C10.2723 34.2318 9.95927 34.1864 9.64449 34.185H6.34449C5.55595 34.1777 4.79334 34.4664 4.20734 34.994C3.62133 35.5217 3.25456 36.25 3.17949 37.035C3.15319 37.4371 2.9766 37.8146 2.68481 38.0925C2.39303 38.3704 2.00739 38.5283 1.60449 38.535Z" fill="#4A8AF8"/>
</g>
<defs>
<clipPath id="clip0_1041_141">
<rect width="48" height="48" fill="white"/>
</clipPath>
</defs>
</svg>
