<svg width="48" height="48" viewBox="0 0 48 48" fill="none" xmlns="http://www.w3.org/2000/svg">
<path d="M41.022 10.5H34.581L33.831 8.25C33.4695 7.1575 32.7725 6.20691 31.8393 5.53359C30.9061 4.86028 29.7843 4.49858 28.6335 4.5H19.3665C18.2161 4.49913 17.0946 4.86106 16.1618 5.53432C15.2289 6.20758 14.5321 7.15787 14.1705 8.25L13.419 10.5H6.978C5.52563 10.5016 4.1332 11.0792 3.10622 12.1062C2.07924 13.1332 1.50159 14.5256 1.5 15.978V38.028C1.50317 39.4793 2.08153 40.8702 3.10834 41.8959C4.13515 42.9216 5.52667 43.4984 6.978 43.5H41.028C42.4793 43.4968 43.8702 42.9185 44.8959 41.8917C45.9216 40.8649 46.4984 39.4733 46.5 38.022V15.972C46.4968 14.5207 45.9185 13.1298 44.8917 12.1041C43.8649 11.0784 42.4733 10.5016 41.022 10.5ZM43.5 38.022C43.4992 38.679 43.2379 39.3088 42.7733 39.7733C42.3088 40.2379 41.679 40.4992 41.022 40.5H6.978C6.32104 40.4992 5.69121 40.2379 5.22667 39.7733C4.76212 39.3088 4.50079 38.679 4.5 38.022V15.972C4.50238 15.3161 4.76441 14.6878 5.22878 14.2245C5.69315 13.7613 6.32207 13.5008 6.978 13.5H14.5005C14.8152 13.4998 15.1218 13.4006 15.377 13.2164C15.6322 13.0323 15.8231 12.7726 15.9225 12.474L17.016 9.1935C17.1802 8.70008 17.4957 8.27091 17.9176 7.96692C18.3395 7.66293 18.8465 7.49956 19.3665 7.5H28.6335C29.1538 7.49944 29.661 7.66293 30.083 7.96724C30.505 8.27155 30.8203 8.70117 30.984 9.195L32.0775 12.474C32.1769 12.7726 32.3678 13.0323 32.623 13.2164C32.8782 13.4006 33.1848 13.4998 33.4995 13.5H41.022C41.679 13.5008 42.3088 13.7621 42.7733 14.2267C43.2379 14.6912 43.4992 15.321 43.5 15.978V38.022Z" fill="#4A8AF8"/>
<path d="M24 15C21.775 15 19.5999 15.6598 17.7498 16.896C15.8998 18.1321 14.4578 19.8891 13.6064 21.9448C12.7549 24.0005 12.5321 26.2625 12.9662 28.4448C13.4003 30.6271 14.4717 32.6316 16.0451 34.205C17.6184 35.7783 19.623 36.8498 21.8052 37.2838C23.9875 37.7179 26.2495 37.4951 28.3052 36.6436C30.3609 35.7922 32.1179 34.3502 33.354 32.5002C34.5902 30.6501 35.25 28.475 35.25 26.25C35.2468 23.2673 34.0605 20.4077 31.9514 18.2986C29.8424 16.1895 26.9827 15.0032 24 15ZM24 34.5C22.3683 34.5 20.7733 34.0161 19.4165 33.1096C18.0598 32.2031 17.0024 30.9146 16.378 29.4071C15.7536 27.8996 15.5902 26.2408 15.9085 24.6405C16.2269 23.0402 17.0126 21.5702 18.1664 20.4164C19.3202 19.2626 20.7902 18.4769 22.3905 18.1585C23.9909 17.8402 25.6497 18.0036 27.1571 18.628C28.6646 19.2524 29.9531 20.3098 30.8596 21.6665C31.7661 23.0233 32.25 24.6183 32.25 26.25C32.2476 28.4373 31.3777 30.5343 29.831 32.081C28.2843 33.6277 26.1873 34.4976 24 34.5Z" fill="#4A8AF8"/>
<path d="M39 19.5C39.8284 19.5 40.5 18.8284 40.5 18C40.5 17.1716 39.8284 16.5 39 16.5C38.1716 16.5 37.5 17.1716 37.5 18C37.5 18.8284 38.1716 19.5 39 19.5Z" fill="#4A8AF8"/>
</svg>